<svg width="30" height="30" viewBox="0 0 30 30" fill="none" xmlns="http://www.w3.org/2000/svg">
<path d="M26.78 8.2284C26.3911 7.32791 25.8303 6.51189 25.1291 5.82603C24.4273 5.13812 23.6 4.59145 22.6919 4.21575C21.7503 3.82462 20.7405 3.62441 19.7209 3.62676C18.2905 3.62676 16.8949 4.01845 15.6821 4.75831C15.392 4.9353 15.1163 5.12969 14.8552 5.34149C14.5941 5.12969 14.3184 4.9353 14.0283 4.75831C12.8155 4.01845 11.4199 3.62676 9.98954 3.62676C8.95954 3.62676 7.96145 3.82406 7.01849 4.21575C6.10745 4.59293 5.28635 5.13549 4.58131 5.82603C3.87915 6.51112 3.31826 7.32733 2.9304 8.2284C2.52711 9.16556 2.32111 10.1607 2.32111 11.1849C2.32111 12.1511 2.5184 13.1579 2.91009 14.1821C3.23795 15.038 3.70798 15.9258 4.30857 16.8224C5.26024 18.2412 6.56877 19.7209 8.19356 21.2209C10.8861 23.7074 13.5525 25.4251 13.6656 25.4947L14.3533 25.9357C14.6579 26.1301 15.0496 26.1301 15.3542 25.9357L16.0419 25.4947C16.155 25.4222 18.8185 23.7074 21.5139 21.2209C23.1387 19.7209 24.4473 18.2412 25.3989 16.8224C25.9995 15.9258 26.4725 15.038 26.7974 14.1821C27.1891 13.1579 27.3864 12.1511 27.3864 11.1849C27.3893 10.1607 27.1833 9.16556 26.78 8.2284ZM14.8552 23.6407C14.8552 23.6407 4.52618 17.0226 4.52618 11.1849C4.52618 8.2284 6.97207 5.83183 9.98954 5.83183C12.1105 5.83183 13.95 7.01561 14.8552 8.74485C15.7604 7.01561 17.5999 5.83183 19.7209 5.83183C22.7383 5.83183 25.1842 8.2284 25.1842 11.1849C25.1842 17.0226 14.8552 23.6407 14.8552 23.6407Z" fill="black"/>
</svg>
