<svg width="30" height="30" viewBox="0 0 30 30" fill="none" xmlns="http://www.w3.org/2000/svg">
<path d="M23.75 12.5H6.25C4.86929 12.5 3.75 13.6193 3.75 15V25C3.75 26.3807 4.86929 27.5 6.25 27.5H23.75C25.1307 27.5 26.25 26.3807 26.25 25V15C26.25 13.6193 25.1307 12.5 23.75 12.5Z" stroke="#112B3D" stroke-width="2.5" stroke-linecap="round" stroke-linejoin="round"/>
<path d="M7.5 12.5V6.25C7.5 5.25544 7.89509 4.30161 8.59835 3.59835C9.30161 2.89509 10.2554 2.5 11.25 2.5H18.75C19.7446 2.5 20.6984 2.89509 21.4017 3.59835C22.1049 4.30161 22.5 5.25544 22.5 6.25V7.5" stroke="#112B3D" stroke-width="2.5" stroke-linecap="round" stroke-linejoin="round"/>
</svg>
