<svg width="70" height="69" viewBox="0 0 70 69" fill="none" xmlns="http://www.w3.org/2000/svg">
<g filter="url(#filter0_b_676_182)">
<path d="M33.3787 49.9388L20.9587 34.5L33.8387 19.0613C34.2611 18.5516 34.4946 17.9119 34.5 17.25C34.5007 16.8277 34.4083 16.4103 34.2294 16.0277C34.0505 15.6451 33.7895 15.3066 33.465 15.0363C33.1745 14.7942 32.8391 14.6118 32.4779 14.4996C32.1168 14.3873 31.7371 14.3474 31.3606 14.3821C30.984 14.4168 30.618 14.5255 30.2835 14.7019C29.949 14.8783 29.6526 15.1189 29.4112 15.41L15.0362 32.66C14.6134 33.1745 14.3822 33.8197 14.3822 34.4857C14.3822 35.1516 14.6134 35.7968 15.0362 36.3113L28.9225 53.5613C29.1597 53.8566 29.453 54.1022 29.7855 54.2838C30.1179 54.4654 30.483 54.5795 30.8597 54.6196C31.2364 54.6597 31.6173 54.6249 31.9806 54.5173C32.3438 54.4097 32.6822 54.2313 32.9762 53.9925C33.2695 53.7532 33.5125 53.4584 33.6915 53.1249C33.8705 52.7914 33.9819 52.4259 34.0193 52.0492C34.0567 51.6726 34.0194 51.2923 33.9095 50.9301C33.7995 50.568 33.6192 50.2311 33.3787 49.9388Z" fill="#112B3D"/>
<path d="M35.1612 32.66C34.7384 33.1745 34.5072 33.8197 34.5072 34.4857C34.5072 35.1516 34.7384 35.7968 35.1612 36.3113L49.0475 53.5613C49.2847 53.8566 49.578 54.1022 49.9105 54.2838C50.2429 54.4654 50.608 54.5795 50.9847 54.6196C51.3614 54.6597 51.7423 54.6249 52.1055 54.5173C52.4688 54.4097 52.8071 54.2313 53.1012 53.9925C53.3966 53.7553 53.6421 53.462 53.8237 53.1295C54.0054 52.7971 54.1195 52.432 54.1596 52.0553C54.1996 51.6786 54.1649 51.2977 54.0572 50.9345C53.9496 50.5712 53.7713 50.2329 53.5325 49.9388L41.0837 34.5L53.9637 19.0613C54.3861 18.5516 54.6196 17.9119 54.625 17.25C54.6257 16.8277 54.5333 16.4103 54.3544 16.0277C54.1755 15.6451 53.9145 15.3066 53.59 15.0363C53.2995 14.7942 52.964 14.6118 52.6029 14.4996C52.2418 14.3873 51.8621 14.3474 51.4856 14.3821C51.109 14.4168 50.743 14.5255 50.4085 14.7019C50.074 14.8783 49.7776 15.1189 49.5362 15.41L35.1612 32.66Z" fill="#112B3D"/>
</g>
<g filter="url(#filter1_f_676_182)">
<path d="M34.3787 49.9388L21.9587 34.5L34.8387 19.0613C35.2611 18.5516 35.4946 17.9119 35.5 17.25C35.5007 16.8277 35.4083 16.4103 35.2294 16.0277C35.0505 15.6451 34.7895 15.3066 34.465 15.0363C34.1745 14.7942 33.8391 14.6118 33.4779 14.4996C33.1168 14.3873 32.7371 14.3474 32.3606 14.3821C31.984 14.4168 31.618 14.5255 31.2835 14.7019C30.949 14.8783 30.6526 15.1189 30.4112 15.41L16.0362 32.66C15.6134 33.1745 15.3822 33.8197 15.3822 34.4857C15.3822 35.1516 15.6134 35.7968 16.0362 36.3113L29.9225 53.5613C30.1597 53.8566 30.453 54.1022 30.7855 54.2838C31.1179 54.4654 31.483 54.5795 31.8597 54.6196C32.2364 54.6597 32.6173 54.6249 32.9806 54.5173C33.3438 54.4097 33.6822 54.2313 33.9762 53.9925C34.2695 53.7532 34.5125 53.4584 34.6915 53.1249C34.8705 52.7914 34.9819 52.4259 35.0193 52.0492C35.0567 51.6726 35.0194 51.2923 34.9095 50.9301C34.7995 50.568 34.6192 50.2311 34.3787 49.9388Z" fill="#112B3D"/>
<path d="M36.1612 32.66C35.7384 33.1745 35.5072 33.8197 35.5072 34.4857C35.5072 35.1516 35.7384 35.7968 36.1612 36.3113L50.0475 53.5613C50.2847 53.8566 50.578 54.1022 50.9105 54.2838C51.2429 54.4654 51.608 54.5795 51.9847 54.6196C52.3614 54.6597 52.7423 54.6249 53.1055 54.5173C53.4688 54.4097 53.8071 54.2313 54.1012 53.9925C54.3966 53.7553 54.6421 53.462 54.8237 53.1295C55.0054 52.7971 55.1195 52.432 55.1596 52.0553C55.1996 51.6786 55.1649 51.2977 55.0572 50.9345C54.9496 50.5712 54.7713 50.2329 54.5325 49.9388L42.0837 34.5L54.9637 19.0613C55.3861 18.5516 55.6196 17.9119 55.625 17.25C55.6257 16.8277 55.5333 16.4103 55.3544 16.0277C55.1755 15.6451 54.9145 15.3066 54.59 15.0363C54.2995 14.7942 53.964 14.6118 53.6029 14.4996C53.2418 14.3873 52.8621 14.3474 52.4856 14.3821C52.109 14.4168 51.743 14.5255 51.4085 14.7019C51.074 14.8783 50.7776 15.1189 50.5362 15.41L36.1612 32.66Z" fill="#112B3D"/>
</g>
<defs>
<filter id="filter0_b_676_182" x="-9" y="-9" width="87" height="87" filterUnits="userSpaceOnUse" color-interpolation-filters="sRGB">
<feFlood flood-opacity="0" result="BackgroundImageFix"/>
<feGaussianBlur in="BackgroundImage" stdDeviation="4.5"/>
<feComposite in2="SourceAlpha" operator="in" result="effect1_backgroundBlur_676_182"/>
<feBlend mode="normal" in="SourceGraphic" in2="effect1_backgroundBlur_676_182" result="shape"/>
</filter>
<filter id="filter1_f_676_182" x="-6" y="-7" width="83" height="83" filterUnits="userSpaceOnUse" color-interpolation-filters="sRGB">
<feFlood flood-opacity="0" result="BackgroundImageFix"/>
<feBlend mode="normal" in="SourceGraphic" in2="BackgroundImageFix" result="shape"/>
<feGaussianBlur stdDeviation="3.5" result="effect1_foregroundBlur_676_182"/>
</filter>
</defs>
</svg>
