<svg width="30" height="27" viewBox="0 0 30 27" fill="none" xmlns="http://www.w3.org/2000/svg">
<g clip-path="url(#clip0_82_7)">
<g filter="url(#filter0_i_82_7)">
<path d="M10.2346 18.9603V14.2067C10.2346 14.2065 10.2346 14.2063 10.2346 14.2062C10.2342 14.2053 10.2329 14.2034 10.2303 14.2008C10.2269 14.1974 10.2222 14.1942 10.2168 14.1919C10.2119 14.1899 10.2051 14.1881 10.1948 14.1881C10.1845 14.1881 10.1776 14.1899 10.1728 14.1919C10.1673 14.1942 10.1627 14.1974 10.1593 14.2008C10.1566 14.2034 10.1554 14.2053 10.1549 14.2062C10.1549 14.2063 10.1549 14.2065 10.1549 14.2067V18.9603C10.1549 18.9605 10.1549 18.9607 10.1549 18.9609C10.1554 18.9617 10.1566 18.9637 10.1593 18.9663C10.1627 18.9696 10.1673 18.9728 10.1728 18.9751C10.1776 18.9771 10.1845 18.979 10.1948 18.979C10.2051 18.979 10.2119 18.9771 10.2168 18.9751C10.2222 18.9728 10.2269 18.9696 10.2303 18.9663L10.2346 18.9603ZM10.2346 18.9603C10.2346 18.9605 10.2346 18.9607 10.2346 18.9609L10.2346 18.9603ZM11.9434 9.47169L14.1987 6.43393L13.3958 5.83782L14.1987 6.43393C14.9866 5.37273 14.7406 3.88864 13.6703 3.12612L13.6702 3.1261C12.6121 2.37227 11.1288 2.5955 10.3503 3.644L10.3503 3.64402L6.02365 9.47169H3.60896C2.50191 9.47169 1.56909 10.3561 1.56909 11.4903V12.1694C1.56909 13.1173 2.22058 13.8907 3.0808 14.1193L4.09742 21.0905L4.09743 21.0905C4.31771 22.6006 5.62974 23.6953 7.1458 23.6953H22.9492C24.4652 23.6953 25.7773 22.6006 25.9975 21.0905L27.0142 14.1193C27.8744 13.8907 28.5259 13.1173 28.5259 12.1694V11.4903C28.5259 10.3561 27.5931 9.47169 26.486 9.47169H24.0713L19.7447 3.64399L19.7447 3.64398C18.9662 2.59543 17.4828 2.3722 16.4248 3.12607C15.3545 3.88854 15.1083 5.37266 15.8962 6.43388C15.8962 6.43389 15.8962 6.4339 15.8963 6.43391L18.1516 9.47169H11.9434ZM15.0874 14.2067V18.9603C15.0874 18.9605 15.0873 18.9607 15.0873 18.9609C15.0869 18.9617 15.0856 18.9637 15.083 18.9663C15.0796 18.9696 15.075 18.9728 15.0695 18.9751C15.0646 18.9771 15.0578 18.979 15.0475 18.979C15.0372 18.979 15.0303 18.9771 15.0255 18.9751C15.02 18.9728 15.0154 18.9696 15.012 18.9663C15.0107 18.965 15.0097 18.9639 15.009 18.9629C15.0083 18.962 15.0079 18.9613 15.0076 18.9609C15.0076 18.9607 15.0076 18.9605 15.0076 18.9603V14.2067C15.0076 14.2065 15.0076 14.2063 15.0076 14.2062C15.0081 14.2053 15.0093 14.2034 15.012 14.2008C15.0154 14.1974 15.02 14.1942 15.0255 14.1919C15.0303 14.1899 15.0372 14.1881 15.0475 14.1881C15.0578 14.1881 15.0646 14.1899 15.0695 14.1919C15.075 14.1942 15.0796 14.1974 15.083 14.2008C15.0856 14.2034 15.0869 14.2053 15.0873 14.2062C15.0873 14.2063 15.0874 14.2065 15.0874 14.2067ZM19.9401 14.2067V18.9603C19.9401 18.9605 19.9401 18.9607 19.9401 18.9609C19.9396 18.9617 19.9384 18.9637 19.9357 18.9663C19.9323 18.9696 19.9277 18.9728 19.9222 18.9751C19.9173 18.9771 19.9105 18.979 19.9002 18.979C19.8899 18.979 19.8831 18.9771 19.8782 18.9751C19.8727 18.9728 19.8681 18.9696 19.8647 18.9663C19.862 18.9637 19.8608 18.9617 19.8603 18.9609C19.8603 18.9607 19.8603 18.9605 19.8603 18.9603V14.2067C19.8603 14.2065 19.8603 14.2063 19.8603 14.2062C19.8608 14.2053 19.862 14.2034 19.8647 14.2008C19.8681 14.1974 19.8727 14.1942 19.8782 14.1919C19.8831 14.1899 19.8899 14.1881 19.9002 14.1881C19.9105 14.1881 19.9173 14.1899 19.9222 14.1919C19.9277 14.1942 19.9323 14.1974 19.9357 14.2008C19.9384 14.2034 19.9396 14.2053 19.9401 14.2062C19.9401 14.2063 19.9401 14.2065 19.9401 14.2067Z" stroke="black" stroke-width="2"/>
</g>
</g>
<defs>
<filter id="filter0_i_82_7" x="0.569092" y="1.68077" width="28.9568" height="27.0146" filterUnits="userSpaceOnUse" color-interpolation-filters="sRGB">
<feFlood flood-opacity="0" result="BackgroundImageFix"/>
<feBlend mode="normal" in="SourceGraphic" in2="BackgroundImageFix" result="shape"/>
<feColorMatrix in="SourceAlpha" type="matrix" values="0 0 0 0 0 0 0 0 0 0 0 0 0 0 0 0 0 0 127 0" result="hardAlpha"/>
<feOffset dy="4"/>
<feGaussianBlur stdDeviation="2"/>
<feComposite in2="hardAlpha" operator="arithmetic" k2="-1" k3="1"/>
<feColorMatrix type="matrix" values="0 0 0 0 0 0 0 0 0 0 0 0 0 0 0 0 0 0 0.25 0"/>
<feBlend mode="normal" in2="shape" result="effect1_innerShadow_82_7"/>
</filter>
<clipPath id="clip0_82_7">
<rect width="29.7105" height="26.1452" fill="white" transform="translate(0.192261 0.115387)"/>
</clipPath>
</defs>
</svg>
