<svg width="70" height="69" viewBox="0 0 70 69" fill="none" xmlns="http://www.w3.org/2000/svg">
<g filter="url(#filter0_b_676_157)">
<path d="M36.6211 19.0612L49.0411 34.5L36.1611 49.9387C35.7388 50.4484 35.5052 51.0881 35.4999 51.75C35.4992 52.1723 35.5916 52.5897 35.7705 52.9723C35.9494 53.3549 36.2104 53.6934 36.5349 53.9637C36.8254 54.2058 37.1608 54.3882 37.5219 54.5004C37.883 54.6127 38.2628 54.6526 38.6393 54.6179C39.0159 54.5832 39.3819 54.4745 39.7164 54.2981C40.0509 54.1217 40.3473 53.8811 40.5886 53.59L54.9636 36.34C55.3865 35.8255 55.6177 35.1803 55.6177 34.5143C55.6177 33.8484 55.3865 33.2032 54.9636 32.6887L41.0774 15.4387C40.8401 15.1434 40.5469 14.8978 40.2144 14.7162C39.882 14.5346 39.5169 14.4205 39.1402 14.3804C38.7635 14.3403 38.3826 14.3751 38.0193 14.4827C37.6561 14.5903 37.3177 14.7687 37.0236 15.0075C36.7304 15.2468 36.4873 15.5416 36.3083 15.8751C36.1293 16.2086 36.0179 16.5741 35.9806 16.9508C35.9432 17.3274 35.9805 17.7077 36.0904 18.0699C36.2004 18.432 36.3807 18.7689 36.6211 19.0612Z" fill="#112B3D"/>
<path d="M34.8386 36.34C35.2615 35.8255 35.4927 35.1803 35.4927 34.5143C35.4927 33.8484 35.2615 33.2032 34.8386 32.6887L20.9524 15.4387C20.7151 15.1434 20.4219 14.8978 20.0894 14.7162C19.757 14.5346 19.3919 14.4205 19.0152 14.3804C18.6385 14.3403 18.2576 14.3751 17.8943 14.4827C17.5311 14.5903 17.1927 14.7687 16.8986 15.0075C16.6033 15.2447 16.3578 15.538 16.1761 15.8705C15.9945 16.2029 15.8804 16.568 15.8403 16.9447C15.8002 17.3214 15.835 17.7023 15.9426 18.0655C16.0502 18.4288 16.2286 18.7671 16.4674 19.0612L28.9161 34.5L16.0361 49.9387C15.6138 50.4484 15.3802 51.0881 15.3749 51.75C15.3742 52.1723 15.4666 52.5897 15.6455 52.9723C15.8244 53.3549 16.0854 53.6934 16.4099 53.9637C16.7004 54.2058 17.0358 54.3882 17.3969 54.5004C17.7581 54.6127 18.1378 54.6526 18.5143 54.6179C18.8909 54.5832 19.2569 54.4745 19.5914 54.2981C19.9259 54.1217 20.2223 53.8811 20.4636 53.59L34.8386 36.34Z" fill="#112B3D"/>
</g>
<g filter="url(#filter1_f_676_157)">
<path d="M35.6211 19.0612L48.0411 34.5L35.1611 49.9387C34.7388 50.4484 34.5052 51.0881 34.4999 51.75C34.4992 52.1723 34.5916 52.5897 34.7705 52.9723C34.9494 53.3549 35.2104 53.6934 35.5349 53.9637C35.8254 54.2058 36.1608 54.3882 36.5219 54.5004C36.883 54.6127 37.2628 54.6526 37.6393 54.6179C38.0159 54.5832 38.3819 54.4745 38.7164 54.2981C39.0509 54.1217 39.3473 53.8811 39.5886 53.59L53.9636 36.34C54.3865 35.8255 54.6177 35.1803 54.6177 34.5143C54.6177 33.8484 54.3865 33.2032 53.9636 32.6887L40.0774 15.4387C39.8401 15.1434 39.5469 14.8978 39.2144 14.7162C38.882 14.5346 38.5169 14.4205 38.1402 14.3804C37.7635 14.3403 37.3826 14.3751 37.0193 14.4827C36.6561 14.5903 36.3177 14.7687 36.0236 15.0075C35.7304 15.2468 35.4873 15.5416 35.3083 15.8751C35.1293 16.2086 35.0179 16.5741 34.9806 16.9508C34.9432 17.3274 34.9805 17.7077 35.0904 18.0699C35.2004 18.432 35.3807 18.7689 35.6211 19.0612Z" fill="#112B3D"/>
<path d="M33.8386 36.34C34.2615 35.8255 34.4927 35.1803 34.4927 34.5143C34.4927 33.8484 34.2615 33.2032 33.8386 32.6887L19.9524 15.4387C19.7151 15.1434 19.4219 14.8978 19.0894 14.7162C18.757 14.5346 18.3919 14.4205 18.0152 14.3804C17.6385 14.3403 17.2576 14.3751 16.8943 14.4827C16.5311 14.5903 16.1927 14.7687 15.8986 15.0075C15.6033 15.2447 15.3578 15.538 15.1761 15.8705C14.9945 16.2029 14.8804 16.568 14.8403 16.9447C14.8002 17.3214 14.835 17.7023 14.9426 18.0655C15.0502 18.4288 15.2286 18.7671 15.4674 19.0612L27.9161 34.5L15.0361 49.9387C14.6138 50.4484 14.3802 51.0881 14.3749 51.75C14.3742 52.1723 14.4666 52.5897 14.6455 52.9723C14.8244 53.3549 15.0854 53.6934 15.4099 53.9637C15.7004 54.2058 16.0358 54.3882 16.3969 54.5004C16.7581 54.6127 17.1378 54.6526 17.5143 54.6179C17.8909 54.5832 18.2569 54.4745 18.5914 54.2981C18.9259 54.1217 19.2223 53.8811 19.4636 53.59L33.8386 36.34Z" fill="#112B3D"/>
</g>
<defs>
<filter id="filter0_b_676_157" x="-8" y="-9" width="87" height="87" filterUnits="userSpaceOnUse" color-interpolation-filters="sRGB">
<feFlood flood-opacity="0" result="BackgroundImageFix"/>
<feGaussianBlur in="BackgroundImage" stdDeviation="4.5"/>
<feComposite in2="SourceAlpha" operator="in" result="effect1_backgroundBlur_676_157"/>
<feBlend mode="normal" in="SourceGraphic" in2="effect1_backgroundBlur_676_157" result="shape"/>
</filter>
<filter id="filter1_f_676_157" x="-7" y="-7" width="83" height="83" filterUnits="userSpaceOnUse" color-interpolation-filters="sRGB">
<feFlood flood-opacity="0" result="BackgroundImageFix"/>
<feBlend mode="normal" in="SourceGraphic" in2="BackgroundImageFix" result="shape"/>
<feGaussianBlur stdDeviation="3.5" result="effect1_foregroundBlur_676_157"/>
</filter>
</defs>
</svg>
