<svg width="810" height="330" viewBox="0 0 810 330" fill="none" xmlns="http://www.w3.org/2000/svg">
<g clip-path="url(#clip0_145_815)">
<path d="M724.3 72.6H662.9V79.3H724.3V72.6Z" fill="white"/>
<path d="M685.2 37.9C689.618 37.9 693.2 34.363 693.2 30C693.2 25.6369 689.618 22.1 685.2 22.1C680.782 22.1 677.2 25.6369 677.2 30C677.2 34.363 680.782 37.9 685.2 37.9Z" fill="#08A689"/>
<path d="M705.4 19.8C710.923 19.8 715.4 15.3676 715.4 9.89999C715.4 4.43237 710.923 0 705.4 0C699.877 0 695.4 4.43237 695.4 9.89999C695.4 15.3676 699.877 19.8 705.4 19.8Z" fill="#08A689"/>
<path d="M709.1 54.2C712.69 54.2 715.6 51.2004 715.6 47.5C715.6 43.7997 712.69 40.8 709.1 40.8C705.51 40.8 702.6 43.7997 702.6 47.5C702.6 51.2004 705.51 54.2 709.1 54.2Z" fill="#08A689"/>
<path d="M694.2 135C702.7 116.5 711.3 98.1 719.8 79.6C702.3 79.6 684.9 79.6 667.4 79.6C676.3 98 685.2 116.5 694.2 135Z" fill="white"/>
<path d="M740.6 145.5C748.8 145.5 756 146.8 762.3 149.4C768.8 151.8 774.3 155.2 778.7 159.7C783.3 164.1 786.9 169.5 789.3 175.8C791.7 182.1 792.9 189.2 792.9 197.2V235.3C792.9 243.1 791.7 250.2 789.3 256.7C786.9 263 783.4 268.5 778.7 273.1C774.3 277.5 768.8 281 762.3 283.4C756 285.8 748.8 287 740.6 287H729.5C721.3 287 714 285.8 707.5 283.4C701.2 281 695.7 277.6 691.1 273.1C686.7 268.5 683.2 263 680.8 256.7C678.4 250.2 677.2 243.1 677.2 235.3V197.2V195V97.7H710V149.1C716.9 146.7 724.1 145.5 731.7 145.5H740.6V145.5ZM729.5 177.5C723.6 177.5 718.8 179.4 715.3 183.1C712 186.8 710.2 191.5 710 197.3V234.3C710 240.4 711.8 245.4 715.3 249.3C718.8 253.2 723.5 255.1 729.5 255.1H740.6C746.5 255.1 751.3 253.2 755.1 249.3C758.8 245.4 760.7 240.4 760.7 234.3V198.2C760.7 192.1 758.8 187.2 755.1 183.5C751.4 179.6 746.6 177.7 740.6 177.7H729.5V177.5Z" fill="white"/>
<path d="M214.3 145.6C222.5 145.6 229.7 146.9 236 149.5C242.5 151.9 248 155.3 252.4 159.8C257 164.2 260.6 169.6 263 175.9C265.4 182.2 266.6 189.3 266.6 197.3V235.4C266.6 243.2 265.4 250.3 263 256.8C260.6 263.1 257.1 268.6 252.4 273.2C248 277.6 242.5 281.1 236 283.5C229.7 285.9 222.5 287.1 214.3 287.1H202.9C194.9 287.1 187.7 285.9 181.2 283.5C174.7 281.1 169.2 277.7 164.5 273.2C160.1 268.6 156.6 263.1 154.2 256.8C152 250.3 150.9 243.2 150.9 235.4V197.3C150.9 189.3 152 182.2 154.2 175.9C156.6 169.6 160 164.2 164.5 159.8C169.1 155.4 174.7 151.9 181.2 149.5C187.7 146.9 194.9 145.6 202.9 145.6H214.3ZM202.9 177.6C197.2 177.6 192.2 179.5 188.2 183.4C184.3 187.1 182.4 192 182.4 198.1V234.2C182.4 240.3 184.3 245.3 188.2 249.2C192.3 253.1 197.2 255 202.9 255H214.3C220.2 255 225 253.1 228.8 249.2C232.7 245.3 234.6 240.3 234.6 234.2V198.1C234.6 192 232.7 187.1 228.8 183.4C225.1 179.5 220.3 177.6 214.3 177.6H202.9Z" fill="#08A689"/>
<path d="M234.5 198.5V234.2C234.5 240.3 232.6 245.3 228.7 249.2C225 253.1 220.2 255 214.2 255H214.1H202.8H202.7C197 255 192.1 253.1 188 249.2C184.1 245.3 182.2 240.3 182.2 234.2V198.5H150.8V235.4C150.8 243.2 151.9 250.3 154.1 256.8C156.5 263.1 159.9 268.6 164.4 273.2C169 277.6 174.6 281.1 181.1 283.5C187.6 285.9 194.8 287.1 202.8 287.1H214.2C222.4 287.1 229.6 285.9 235.9 283.5C242.4 281.1 247.9 277.7 252.3 273.2C256.9 268.6 260.5 263.1 262.9 256.8C265.3 250.3 266.5 243.2 266.5 235.4V198.5H234.5Z" fill="#08A689"/>
<path d="M137.2 227C137.2 234.6 135.7 241.7 132.8 248.4C130 255.1 126.1 260.9 121.1 265.9C116.1 270.9 110.3 274.9 103.6 277.9C96.9 280.7 89.9 282.1 82.5 282.1H68.9C61.7 282.1 55 280.8 48.9 278.2C43 275.6 37.7 272.1 33.1 267.6C28.5 263.1 24.8 258 22 252C19.2 245.9 17.6 239.4 17 232.5H51C52.1 237.1 54.1 241.1 56.8 244.5C59.8 247.7 63.8 249.2 69 249.2H80.7C84 249.2 87 248.6 89.6 247.3C92.2 246 94.4 244.2 96.3 242C98.3 239.8 99.9 237.3 101 234.5C102.1 231.5 102.7 228.4 102.7 225V92.7H137.2V227Z" fill="#08A689"/>
<path d="M329.1 330.4H298.5L312.7 279.5L269.9 148.6H300.8L327.8 231L354.5 148.6H385.6L329.1 330.4Z" fill="#08A689"/>
<path d="M433.8 250.1H536.4V282.1H400.4V92.7H433.8V250.1Z" fill="white"/>
<path d="M545.4 189.1C546 183.4 547.3 177.8 549.3 172.6C551.5 167.4 554.7 162.8 558.8 158.8C562.9 154.8 568 151.7 574.1 149.4C580.2 146.9 587.3 145.6 595.2 145.6H611.9C620.2 145.6 627.5 147 633.6 149.7C639.9 152.4 645.1 156 649.2 160.5C653.3 164.8 656.3 169.8 658.4 175.6C660.4 181.1 661.5 186.9 661.5 192.6V283H582.5C576.4 283 570.9 281.9 566.1 279.8C561.3 277.5 557.2 274.5 553.9 270.9C550.7 267.1 548.3 262.7 546.7 257.7C545.2 252.7 544.5 247.3 544.5 241.5C544.5 236 545.3 230.7 547 225.9C548.7 221 551.1 216.9 554.2 213.5C557.4 209.9 561.2 207.1 565.9 205.1C570.7 203 576.1 201.9 582 201.9H629.5V199.2C629.5 196 629.2 193 628.7 190.3C628.1 187.4 627.1 185 625.6 183C624.1 181 621.9 179.5 618.9 178.4C615.9 177.1 611.9 176.6 606.9 176.6H600C592.6 176.6 587.3 177.7 584.2 179.8C581 181.7 578.9 184.9 577.8 189.2H545.4V189.1ZM574.1 241.4C574.1 246.1 575 249.6 576.9 251.9C578.9 254 581.2 255.1 583.6 255.1H629.5V227.5H583.6C581.2 227.5 579 228.7 576.9 231C575 233.6 574.1 237 574.1 241.4Z" fill="white"/>
</g>
<defs>
<clipPath id="clip0_145_815">
<rect width="810" height="330" fill="white"/>
</clipPath>
</defs>
</svg>
