<svg width="30" height="30" viewBox="0 0 30 30" fill="none" xmlns="http://www.w3.org/2000/svg">
<path d="M26.7799 8.22837C26.391 7.32788 25.8303 6.51186 25.129 5.826C24.4273 5.13809 23.5999 4.59142 22.6919 4.21572C21.7503 3.82459 20.7404 3.62438 19.7208 3.62673C18.2904 3.62673 16.8948 4.01842 15.682 4.75828C15.3919 4.93527 15.1163 5.12966 14.8551 5.34146C14.594 5.12966 14.3184 4.93527 14.0282 4.75828C12.8155 4.01842 11.4199 3.62673 9.98948 3.62673C8.95948 3.62673 7.96139 3.82403 7.01843 4.21572C6.10739 4.5929 5.28629 5.13546 4.58124 5.826C3.87909 6.51109 3.3182 7.3273 2.93034 8.22837C2.52705 9.16552 2.32104 10.1607 2.32104 11.1849C2.32104 12.1511 2.51834 13.1579 2.91003 14.1821C3.23789 15.038 3.70792 15.9258 4.30851 16.8224C5.26018 18.2411 6.56871 19.7209 8.1935 21.2209C10.886 23.7074 13.5524 25.425 13.6656 25.4947L14.3532 25.9357C14.6578 26.1301 15.0495 26.1301 15.3542 25.9357L16.0418 25.4947C16.155 25.4221 18.8185 23.7074 21.5139 21.2209C23.1387 19.7209 24.4472 18.2411 25.3989 16.8224C25.9995 15.9258 26.4724 15.038 26.7974 14.1821C27.189 13.1579 27.3863 12.1511 27.3863 11.1849C27.3892 10.1607 27.1832 9.16552 26.7799 8.22837V8.22837ZM14.8551 23.6407C14.8551 23.6407 4.52612 17.0225 4.52612 11.1849C4.52612 8.22837 6.97201 5.8318 9.98948 5.8318C12.1104 5.8318 13.9499 7.01558 14.8551 8.74482C15.7604 7.01558 17.5999 5.8318 19.7208 5.8318C22.7383 5.8318 25.1842 8.22837 25.1842 11.1849C25.1842 17.0225 14.8551 23.6407 14.8551 23.6407Z" fill="white"/>
</svg>
