<svg width="26" height="28" viewBox="0 0 26 28" fill="none" xmlns="http://www.w3.org/2000/svg">
<path d="M21.75 11.5H4.25C2.86929 11.5 1.75 12.6193 1.75 14V24C1.75 25.3807 2.86929 26.5 4.25 26.5H21.75C23.1307 26.5 24.25 25.3807 24.25 24V14C24.25 12.6193 23.1307 11.5 21.75 11.5Z" stroke="#CED8E2" stroke-width="2.5" stroke-linecap="round" stroke-linejoin="round"/>
<path d="M5.5 11.5V5.25C5.5 4.25544 5.89509 3.30161 6.59835 2.59835C7.30161 1.89509 8.25544 1.5 9.25 1.5H16.75C17.7446 1.5 18.6984 1.89509 19.4017 2.59835C20.1049 3.30161 20.5 4.25544 20.5 5.25V6.5" stroke="#CED8E2" stroke-width="2.5" stroke-linecap="round" stroke-linejoin="round"/>
</svg>
