<svg width="28" height="21" viewBox="0 0 28 21" fill="none" xmlns="http://www.w3.org/2000/svg">
<path d="M23.4746 17.6851C23.4746 18.004 23.2515 18.2335 22.9304 18.2335C22.5997 18.2335 22.3862 17.9896 22.3862 17.6851C22.3862 17.3805 22.5997 17.1366 22.9304 17.1366C23.2515 17.1366 23.4746 17.3805 23.4746 17.6851ZM8.36649 17.1366C8.02087 17.1366 7.82226 17.3805 7.82226 17.6851C7.82226 17.9896 8.02175 18.2335 8.36649 18.2335C8.68235 18.2335 8.89585 18.004 8.89585 17.6851C8.8906 17.3805 8.68235 17.1366 8.36649 17.1366ZM14.0783 17.1231C13.8158 17.1231 13.6548 17.2868 13.6163 17.5307H14.5447C14.5009 17.2632 14.3312 17.1231 14.0783 17.1231ZM19.3185 17.1366C18.9878 17.1366 18.7892 17.3805 18.7892 17.6851C18.7892 17.9896 18.9887 18.2335 19.3185 18.2335C19.6493 18.2335 19.8628 18.004 19.8628 17.6851C19.8628 17.3805 19.6484 17.1366 19.3185 17.1366ZM24.466 18.36C24.466 18.3744 24.4809 18.3836 24.4809 18.4115C24.4809 18.4258 24.466 18.4351 24.466 18.463C24.4511 18.4773 24.4511 18.4866 24.4415 18.5001C24.4266 18.5144 24.417 18.5237 24.3881 18.5237C24.3732 18.538 24.3636 18.538 24.3347 18.538C24.3199 18.538 24.3102 18.538 24.2814 18.5237C24.2665 18.5237 24.2569 18.5094 24.2429 18.5001C24.228 18.4857 24.2184 18.4765 24.2184 18.463C24.2035 18.4393 24.2035 18.4258 24.2035 18.4115C24.2035 18.3879 24.2035 18.3744 24.2184 18.36C24.2184 18.3364 24.2332 18.3229 24.2429 18.3086C24.2577 18.2942 24.2674 18.2942 24.2814 18.2849C24.3059 18.2706 24.3199 18.2706 24.3347 18.2706C24.3592 18.2706 24.3732 18.2706 24.3881 18.2849C24.4126 18.2984 24.4266 18.2984 24.4415 18.3086C24.4564 18.3187 24.4511 18.3364 24.466 18.36ZM24.3592 18.4258C24.3837 18.4258 24.3837 18.4115 24.3977 18.4115C24.4126 18.3971 24.4126 18.3879 24.4126 18.3744C24.4126 18.3609 24.4126 18.3507 24.3977 18.3372C24.3837 18.3372 24.3732 18.3229 24.3444 18.3229H24.2665V18.4866H24.305V18.4208H24.3199L24.3732 18.4866H24.4117L24.3592 18.4258ZM28 2.25018V18.7498C27.9998 19.3465 27.7538 19.9187 27.3163 20.3407C26.8787 20.7626 26.2853 20.9998 25.6664 21H2.33355C1.71473 20.9998 1.12131 20.7626 0.683738 20.3407C0.246162 19.9187 0.0002319 19.3465 0 18.7498V2.25018C0.0002319 1.65346 0.246162 1.08125 0.683738 0.65931C1.12131 0.237367 1.71473 0.000223615 2.33355 0H25.6664C26.2853 0.000223615 26.8787 0.237367 27.3163 0.65931C27.7538 1.08125 27.9998 1.65346 28 2.25018ZM3.11228 8.79317C3.11228 12.3789 6.13093 15.2847 9.84432 15.2847C11.1668 15.2811 12.4593 14.9048 13.563 14.2022C10.0193 11.423 10.0438 6.17766 13.563 3.39763C12.4604 2.69282 11.1672 2.31636 9.84432 2.31515C6.13093 2.31093 3.11228 5.22089 3.11228 8.79317ZM14.0004 13.8934C17.4277 11.315 17.4128 6.29072 14.0004 3.69883C10.588 6.29072 10.5732 11.3201 14.0004 13.8934ZM7.0829 17.4699C7.0829 17.0624 6.80554 16.7949 6.36805 16.7806C6.14406 16.7806 5.90607 16.8464 5.74595 17.0852C5.62957 16.8928 5.43008 16.7806 5.15271 16.7806C5.05193 16.7791 4.95229 16.8014 4.86247 16.8455C4.77265 16.8896 4.69537 16.9542 4.63735 17.0337V16.8278H4.23924V18.5482H4.63735C4.63735 17.6623 4.51573 17.1324 5.07484 17.1324C5.57095 17.1324 5.47383 17.6108 5.47383 18.5482H5.85794C5.85794 17.6901 5.73632 17.1324 6.29543 17.1324C6.79154 17.1324 6.69354 17.6015 6.69354 18.5482H7.09253V17.4699H7.0829ZM9.26596 16.8278H8.88185V17.0337C8.81386 16.9519 8.72709 16.8865 8.6284 16.8426C8.5297 16.7986 8.42177 16.7774 8.31312 16.7806C7.81263 16.7806 7.42852 17.1653 7.42852 17.6851C7.42852 18.2098 7.81263 18.5895 8.31312 18.5895C8.56598 18.5895 8.7506 18.5001 8.88185 18.3364V18.5524H9.26596V16.8278ZM11.2346 18.0276C11.2346 17.3248 10.1217 17.6429 10.1217 17.3147C10.1217 17.0472 10.7 17.0902 11.0212 17.2632L11.1813 16.9586C10.7245 16.6726 9.71307 16.6777 9.71307 17.3434C9.71307 18.0133 10.826 17.7323 10.826 18.0462C10.826 18.3415 10.1698 18.3178 9.81982 18.0833L9.65007 18.3786C10.1943 18.7346 11.2346 18.6595 11.2346 18.0268V18.0276ZM12.9557 18.463L12.849 18.144C12.6644 18.2419 12.2557 18.3499 12.2557 17.9517V17.1738H12.8927V16.827H12.2557V16.3022H11.8568V16.827H11.4875V17.1695H11.8568V17.9525C11.8568 18.7777 12.6976 18.6275 12.9557 18.463ZM13.6015 17.8352H14.9384C14.9384 17.0759 14.5788 16.7755 14.0923 16.7755C13.577 16.7755 13.2077 17.1459 13.2077 17.68C13.2077 18.641 14.3067 18.8004 14.8509 18.3457L14.6663 18.0647C14.2874 18.3651 13.7134 18.3364 13.6015 17.8352ZM16.4749 16.8278C16.2517 16.7342 15.9114 16.7435 15.7364 17.0337V16.8278H15.3374V18.5482H15.7364V17.5779C15.7364 17.0337 16.1984 17.1046 16.3585 17.1839L16.4749 16.8278ZM16.9902 17.6851C16.9902 17.1501 17.5546 16.9772 17.9964 17.291L18.1811 16.9865C17.6167 16.5604 16.5912 16.7941 16.5912 17.6893C16.5912 18.6174 17.6797 18.8047 18.1811 18.3921L17.9964 18.0875C17.5493 18.3921 16.9902 18.2098 16.9902 17.6842V17.6851ZM20.232 16.8278H19.833V17.0337C19.4296 16.5182 18.3797 16.8093 18.3797 17.6851C18.3797 18.5853 19.4681 18.8426 19.833 18.3364V18.5524H20.232V16.8278ZM21.8699 16.8278C21.7536 16.7713 21.3353 16.692 21.1315 17.0337V16.8278H20.7474V18.5482H21.1315V17.5779C21.1315 17.0624 21.569 17.0953 21.7536 17.1839L21.8699 16.8278ZM23.829 16.1292H23.4449V17.0337C23.0459 16.5233 21.9916 16.7949 21.9916 17.6851C21.9916 18.5946 23.0853 18.8376 23.4449 18.3364V18.5524H23.829V16.1292ZM24.1991 12.6093V12.8253H24.2376V12.6093H24.3295V12.5722H24.1055V12.6093H24.1991ZM24.5194 18.4115C24.5194 18.3879 24.5194 18.36 24.5054 18.3364C24.4905 18.3221 24.4809 18.2993 24.4669 18.2849C24.4529 18.2706 24.4284 18.2613 24.4135 18.2478C24.389 18.2478 24.3601 18.2335 24.3356 18.2335C24.3207 18.2335 24.2971 18.2478 24.2674 18.2478C24.2482 18.2582 24.2303 18.2707 24.214 18.2849C24.1895 18.2984 24.1755 18.3221 24.1755 18.3364C24.1606 18.36 24.1606 18.3879 24.1606 18.4115C24.1606 18.4258 24.1606 18.4486 24.1755 18.4773C24.1755 18.4916 24.1904 18.5144 24.214 18.5288C24.2288 18.5447 24.247 18.5574 24.2674 18.5659C24.2919 18.5794 24.3207 18.5794 24.3356 18.5794C24.3601 18.5794 24.389 18.5794 24.4135 18.5659C24.4284 18.5515 24.452 18.5423 24.4669 18.5288C24.4817 18.5153 24.4914 18.4916 24.5054 18.4773C24.5194 18.4495 24.5194 18.4258 24.5194 18.4115ZM24.6751 12.5671H24.6069L24.529 12.7308L24.4511 12.5671H24.3829V12.8202H24.4214V12.6278L24.4992 12.7915H24.5526L24.6209 12.6278V12.8202H24.6742L24.6751 12.5671ZM24.8886 8.79317C24.8886 5.22089 21.8699 2.31093 18.1566 2.31093C16.834 2.31412 15.5414 2.69041 14.4379 3.39341C17.9431 6.17344 17.9964 11.4323 14.4379 14.198C15.5411 14.9016 16.8339 15.2779 18.1566 15.2805C21.8699 15.2855 24.8886 12.3789 24.8886 8.79317Z" fill="#CED8E2"/>
</svg>
