<svg width="31" height="21" viewBox="0 0 31 21" fill="none" xmlns="http://www.w3.org/2000/svg">
<path d="M10.0239 10.6367C10.0239 10.974 9.9095 11.2542 9.68077 11.4775C9.45204 11.7008 9.17173 11.8125 8.83984 11.8125C8.57972 11.8125 8.37117 11.7396 8.21419 11.5938C8.05722 11.4479 7.97873 11.2474 7.97873 10.9922C7.97873 10.6549 8.09086 10.3701 8.3151 10.1377C8.53935 9.90527 8.81742 9.78906 9.14931 9.78906C9.40046 9.78906 9.60901 9.86426 9.77496 10.0146C9.9409 10.165 10.0239 10.3724 10.0239 10.6367ZM20.5859 8.59961C20.5859 8.98242 20.4873 9.24219 20.2899 9.37891C20.0926 9.51562 19.7966 9.58398 19.4019 9.58398L18.9714 9.59766L19.2001 8.13477C19.218 8.0345 19.2763 7.98438 19.375 7.98438H19.6172C19.8145 7.98438 19.9715 7.99349 20.0881 8.01172C20.2047 8.02995 20.3168 8.08691 20.4245 8.18262C20.5321 8.27832 20.5859 8.41732 20.5859 8.59961ZM25.3086 10.6367C25.3086 10.9648 25.1942 11.2428 24.9655 11.4707C24.7368 11.6986 24.4609 11.8125 24.138 11.8125C23.8779 11.8125 23.6671 11.7396 23.5056 11.5938C23.3442 11.4479 23.2635 11.2474 23.2635 10.9922C23.2635 10.6549 23.3756 10.3701 23.5998 10.1377C23.8241 9.90527 24.1021 9.78906 24.434 9.78906C24.6852 9.78906 24.8937 9.86426 25.0597 10.0146C25.2256 10.165 25.3086 10.3724 25.3086 10.6367ZM6.90234 8.29883C6.90234 7.76107 6.72967 7.37142 6.38433 7.12988C6.03899 6.88835 5.58825 6.76758 5.03212 6.76758H2.87934C2.70891 6.76758 2.61473 6.85417 2.59679 7.02734L1.72222 12.6055C1.71325 12.6602 1.72671 12.7103 1.76259 12.7559C1.79847 12.8014 1.84332 12.8242 1.89714 12.8242H2.9197C3.0991 12.8242 3.19777 12.7376 3.21571 12.5645L3.4579 11.0605C3.46687 10.9876 3.49826 10.9284 3.55208 10.8828C3.6059 10.8372 3.67318 10.8076 3.75391 10.7939C3.83464 10.7803 3.91088 10.7734 3.98264 10.7734C4.0544 10.7734 4.13961 10.778 4.23828 10.7871C4.33695 10.7962 4.39974 10.8008 4.42665 10.8008C5.19806 10.8008 5.80353 10.5798 6.24306 10.1377C6.68258 9.69564 6.90234 9.08268 6.90234 8.29883ZM11.0599 12.5645L11.6115 8.99609C11.6205 8.94141 11.6071 8.89128 11.5712 8.8457C11.5353 8.80013 11.4905 8.77734 11.4366 8.77734H10.4141C10.2885 8.77734 10.2122 8.92773 10.1853 9.22852C9.94314 8.86393 9.51707 8.68164 8.90712 8.68164C8.26128 8.68164 7.71188 8.92773 7.2589 9.41992C6.80592 9.91211 6.57943 10.4909 6.57943 11.1562C6.57943 11.694 6.73416 12.1224 7.04362 12.4414C7.35308 12.7604 7.76794 12.9199 8.28819 12.9199C8.53935 12.9199 8.79948 12.8652 9.06858 12.7559C9.33767 12.6465 9.55295 12.5007 9.71441 12.3184C9.67853 12.4277 9.66059 12.5234 9.66059 12.6055C9.66059 12.7513 9.71889 12.8242 9.8355 12.8242H10.7639C10.9343 12.8242 11.033 12.7376 11.0599 12.5645ZM17.0742 8.96875C17.0742 8.92318 17.0563 8.87988 17.0204 8.83887C16.9845 8.79785 16.9442 8.77734 16.8993 8.77734H15.8633C15.7646 8.77734 15.6839 8.82292 15.6211 8.91406L14.1949 11.0469L13.6029 8.99609C13.558 8.85026 13.4593 8.77734 13.3069 8.77734H12.2977C12.2529 8.77734 12.2125 8.79785 12.1766 8.83887C12.1408 8.87988 12.1228 8.92318 12.1228 8.96875C12.1228 8.98698 12.2103 9.25586 12.3852 9.77539C12.5601 10.2949 12.7485 10.8555 12.9503 11.457C13.1521 12.0586 13.2575 12.3776 13.2665 12.4141C12.531 13.4349 12.1632 13.9818 12.1632 14.0547C12.1632 14.1732 12.2215 14.2324 12.3381 14.2324H13.3741C13.4728 14.2324 13.5535 14.1868 13.6163 14.0957L17.0473 9.06445C17.0652 9.04622 17.0742 9.01432 17.0742 8.96875ZM22.1871 8.29883C22.1871 7.76107 22.0144 7.37142 21.6691 7.12988C21.3237 6.88835 20.873 6.76758 20.3168 6.76758H18.1775C17.9981 6.76758 17.8995 6.85417 17.8815 7.02734L17.0069 12.6055C16.998 12.6602 17.0114 12.7103 17.0473 12.7559C17.0832 12.8014 17.128 12.8242 17.1819 12.8242H18.2852C18.3928 12.8242 18.4646 12.765 18.5004 12.6465L18.7426 11.0605C18.7516 10.9876 18.783 10.9284 18.8368 10.8828C18.8906 10.8372 18.9579 10.8076 19.0386 10.7939C19.1194 10.7803 19.1956 10.7734 19.2674 10.7734C19.3391 10.7734 19.4243 10.778 19.523 10.7871C19.6217 10.7962 19.6845 10.8008 19.7114 10.8008C20.4828 10.8008 21.0883 10.5798 21.5278 10.1377C21.9673 9.69564 22.1871 9.08268 22.1871 8.29883ZM26.3446 12.5645L26.8963 8.99609C26.9052 8.94141 26.8918 8.89128 26.8559 8.8457C26.82 8.80013 26.7752 8.77734 26.7214 8.77734H25.6988C25.5732 8.77734 25.497 8.92773 25.4701 9.22852C25.2368 8.86393 24.8108 8.68164 24.1918 8.68164C23.546 8.68164 22.9966 8.92773 22.5436 9.41992C22.0906 9.91211 21.8641 10.4909 21.8641 11.1562C21.8641 11.694 22.0189 12.1224 22.3283 12.4414C22.6378 12.7604 23.0527 12.9199 23.5729 12.9199C23.833 12.9199 24.0977 12.8652 24.3668 12.7559C24.6359 12.6465 24.8466 12.5007 24.9991 12.3184C24.9991 12.3275 24.9902 12.3685 24.9722 12.4414C24.9543 12.5143 24.9453 12.569 24.9453 12.6055C24.9453 12.7513 25.0036 12.8242 25.1202 12.8242H26.0486C26.219 12.8242 26.3177 12.7376 26.3446 12.5645ZM29.2778 6.97266V6.95898C29.2778 6.83138 29.2195 6.76758 29.1029 6.76758H28.1072C28.0085 6.76758 27.9502 6.81771 27.9323 6.91797L27.0577 12.6055L27.0443 12.6328C27.0443 12.6784 27.0622 12.7217 27.0981 12.7627C27.134 12.8037 27.1788 12.8242 27.2326 12.8242H28.1207C28.2911 12.8242 28.3853 12.7376 28.4032 12.5645L29.2778 6.97266ZM5.27431 8.80469C5.22946 9.1237 5.11285 9.33333 4.92448 9.43359C4.73611 9.53385 4.46701 9.58398 4.11719 9.58398L3.67318 9.59766L3.90191 8.13477C3.91985 8.0345 3.97815 7.98438 4.07682 7.98438H4.33247C4.69126 7.98438 4.95139 8.03678 5.11285 8.1416C5.27431 8.24642 5.32812 8.46745 5.27431 8.80469ZM31 1.75V19.25C31 19.724 30.8296 20.1341 30.4887 20.4805C30.1479 20.8268 29.7442 21 29.2778 21H1.72222C1.25579 21 0.852141 20.8268 0.511285 20.4805C0.170428 20.1341 0 19.724 0 19.25V1.75C0 1.27604 0.170428 0.865885 0.511285 0.519531C0.852141 0.173177 1.25579 0 1.72222 0H29.2778C29.7442 0 30.1479 0.173177 30.4887 0.519531C30.8296 0.865885 31 1.27604 31 1.75Z" fill="#CED8E2"/>
</svg>
