<svg width="19" height="19" viewBox="0 0 19 19" fill="none" xmlns="http://www.w3.org/2000/svg">
<path d="M14.25 7.71875H13.0625C13.062 7.24648 12.8742 6.79368 12.5403 6.45974C12.2063 6.12579 11.7535 5.93797 11.2812 5.9375V4.75C12.0683 4.75094 12.8229 5.06402 13.3794 5.62057C13.936 6.17711 14.2491 6.93168 14.25 7.71875V7.71875Z" fill="#CED8E2"/>
<path d="M16.625 7.71876H15.4375C15.4363 6.61683 14.998 5.56041 14.2188 4.78123C13.4396 4.00206 12.3832 3.56376 11.2813 3.5625V2.37501C12.698 2.37658 14.0563 2.94008 15.0581 3.94189C16.0599 4.9437 16.6234 6.30199 16.625 7.71876V7.71876ZM12.0727 12.7549L13.4027 11.4249C13.5808 11.2469 13.8071 11.125 14.0538 11.0743C14.3004 11.0236 14.5565 11.0465 14.7903 11.1399L16.4101 11.7883C16.6488 11.8838 16.8534 12.0487 16.9976 12.2616C17.1417 12.4746 17.2188 12.7258 17.2188 12.9829V15.9285C17.2192 16.1036 17.1839 16.2769 17.115 16.4379C17.0461 16.5988 16.9451 16.744 16.8181 16.8646C16.6912 16.9851 16.541 17.0785 16.3767 17.139C16.2124 17.1995 16.0375 17.2258 15.8626 17.2164C4.50895 16.5098 2.21589 6.89344 1.79017 3.211C1.76955 3.03098 1.78728 2.84862 1.84219 2.67594C1.8971 2.50326 1.98795 2.34415 2.10876 2.2091C2.22957 2.07404 2.3776 1.96609 2.54312 1.89235C2.70864 1.81861 2.8879 1.78075 3.0691 1.78126H5.96245C6.21958 1.78125 6.47082 1.85828 6.68376 2.00243C6.89669 2.14657 7.06155 2.35121 7.15707 2.58994L7.80486 4.20969C7.89834 4.4435 7.92116 4.69959 7.8705 4.94624C7.81984 5.19289 7.69793 5.41926 7.51986 5.59729L6.18985 6.92729C6.18985 6.92729 6.92729 12.1119 12.0727 12.7549Z" fill="#CED8E2"/>
</svg>
