<svg width="71" height="69" viewBox="0 0 71 69" fill="none" xmlns="http://www.w3.org/2000/svg">
<g filter="url(#filter0_b_640_255)">
<path d="M34.3758 49.9388L21.9558 34.5L34.8358 19.0613C35.2581 18.5516 35.4917 17.9119 35.4971 17.25C35.4977 16.8277 35.4054 16.4103 35.2265 16.0277C35.0476 15.6451 34.7866 15.3066 34.4621 15.0363C34.1715 14.7942 33.8361 14.6118 33.475 14.4996C33.1139 14.3873 32.7342 14.3474 32.3576 14.3821C31.9811 14.4168 31.6151 14.5255 31.2806 14.7019C30.9461 14.8783 30.6497 15.1189 30.4083 15.41L16.0333 32.66C15.6104 33.1745 15.3793 33.8197 15.3793 34.4857C15.3793 35.1516 15.6104 35.7968 16.0333 36.3113L29.9196 53.5613C30.1568 53.8566 30.4501 54.1022 30.7825 54.2838C31.115 54.4654 31.4801 54.5795 31.8568 54.6196C32.2335 54.6597 32.6144 54.6249 32.9776 54.5173C33.3408 54.4097 33.6792 54.2313 33.9733 53.9925C34.2665 53.7532 34.5096 53.4584 34.6886 53.1249C34.8676 52.7914 34.979 52.4259 35.0164 52.0492C35.0538 51.6726 35.0165 51.2923 34.9065 50.9301C34.7966 50.568 34.6162 50.2311 34.3758 49.9388Z" fill="#CED8E2"/>
<path d="M36.1583 32.66C35.7354 33.1745 35.5043 33.8197 35.5043 34.4857C35.5043 35.1516 35.7354 35.7968 36.1583 36.3113L50.0445 53.5613C50.2818 53.8566 50.5751 54.1022 50.9075 54.2838C51.24 54.4654 51.6051 54.5795 51.9818 54.6196C52.3585 54.6597 52.7394 54.6249 53.1026 54.5173C53.4658 54.4097 53.8042 54.2313 54.0983 53.9925C54.3936 53.7553 54.6392 53.462 54.8208 53.1295C55.0024 52.7971 55.1166 52.432 55.1566 52.0553C55.1967 51.6786 55.1619 51.2977 55.0543 50.9345C54.9467 50.5712 54.7684 50.2329 54.5296 49.9388L42.0808 34.5L54.9608 19.0613C55.3831 18.5516 55.6167 17.9119 55.6221 17.25C55.6227 16.8277 55.5304 16.4103 55.3515 16.0277C55.1726 15.6451 54.9116 15.3066 54.587 15.0363C54.2965 14.7942 53.9611 14.6118 53.6 14.4996C53.2389 14.3873 52.8592 14.3474 52.4826 14.3821C52.1061 14.4168 51.7401 14.5255 51.4056 14.7019C51.0711 14.8783 50.7747 15.1189 50.5333 15.41L36.1583 32.66Z" fill="#CED8E2"/>
</g>
<g filter="url(#filter1_f_640_255)">
<path d="M35.3758 49.9388L22.9558 34.5L35.8358 19.0613C36.2581 18.5516 36.4917 17.9119 36.4971 17.25C36.4977 16.8277 36.4054 16.4103 36.2265 16.0277C36.0476 15.6451 35.7866 15.3066 35.4621 15.0363C35.1715 14.7942 34.8361 14.6118 34.475 14.4996C34.1139 14.3873 33.7342 14.3474 33.3576 14.3821C32.9811 14.4168 32.6151 14.5255 32.2806 14.7019C31.9461 14.8783 31.6497 15.1189 31.4083 15.41L17.0333 32.66C16.6104 33.1745 16.3793 33.8197 16.3793 34.4857C16.3793 35.1516 16.6104 35.7968 17.0333 36.3113L30.9196 53.5613C31.1568 53.8566 31.4501 54.1022 31.7825 54.2838C32.115 54.4654 32.4801 54.5795 32.8568 54.6196C33.2335 54.6597 33.6144 54.6249 33.9776 54.5173C34.3408 54.4097 34.6792 54.2313 34.9733 53.9925C35.2665 53.7532 35.5096 53.4584 35.6886 53.1249C35.8676 52.7914 35.979 52.4259 36.0164 52.0492C36.0538 51.6726 36.0165 51.2923 35.9065 50.9301C35.7966 50.568 35.6162 50.2311 35.3758 49.9388Z" fill="#CED8E2"/>
<path d="M37.1583 32.66C36.7354 33.1745 36.5043 33.8197 36.5043 34.4857C36.5043 35.1516 36.7354 35.7968 37.1583 36.3113L51.0445 53.5613C51.2818 53.8566 51.5751 54.1022 51.9075 54.2838C52.24 54.4654 52.6051 54.5795 52.9818 54.6196C53.3585 54.6597 53.7394 54.6249 54.1026 54.5173C54.4658 54.4097 54.8042 54.2313 55.0983 53.9925C55.3936 53.7553 55.6392 53.462 55.8208 53.1295C56.0024 52.7971 56.1166 52.432 56.1566 52.0553C56.1967 51.6786 56.1619 51.2977 56.0543 50.9345C55.9467 50.5712 55.7684 50.2329 55.5296 49.9388L43.0808 34.5L55.9608 19.0613C56.3831 18.5516 56.6167 17.9119 56.6221 17.25C56.6227 16.8277 56.5304 16.4103 56.3515 16.0277C56.1726 15.6451 55.9116 15.3066 55.587 15.0363C55.2965 14.7942 54.9611 14.6118 54.6 14.4996C54.2389 14.3873 53.8592 14.3474 53.4826 14.3821C53.1061 14.4168 52.7401 14.5255 52.4056 14.7019C52.0711 14.8783 51.7747 15.1189 51.5333 15.41L37.1583 32.66Z" fill="#CED8E2"/>
</g>
<defs>
<filter id="filter0_b_640_255" x="-8.00293" y="-9" width="87" height="87" filterUnits="userSpaceOnUse" color-interpolation-filters="sRGB">
<feFlood flood-opacity="0" result="BackgroundImageFix"/>
<feGaussianBlur in="BackgroundImage" stdDeviation="4.5"/>
<feComposite in2="SourceAlpha" operator="in" result="effect1_backgroundBlur_640_255"/>
<feBlend mode="normal" in="SourceGraphic" in2="effect1_backgroundBlur_640_255" result="shape"/>
</filter>
<filter id="filter1_f_640_255" x="-5.00293" y="-7" width="83" height="83" filterUnits="userSpaceOnUse" color-interpolation-filters="sRGB">
<feFlood flood-opacity="0" result="BackgroundImageFix"/>
<feBlend mode="normal" in="SourceGraphic" in2="BackgroundImageFix" result="shape"/>
<feGaussianBlur stdDeviation="3.5" result="effect1_foregroundBlur_640_255"/>
</filter>
</defs>
</svg>
