<svg width="71" height="69" viewBox="0 0 71 69" fill="none" xmlns="http://www.w3.org/2000/svg">
<g filter="url(#filter0_b_509_224)">
<path d="M37.6182 19.0612L50.0382 34.5L37.1582 49.9387C36.7359 50.4484 36.5023 51.0881 36.497 51.75C36.4963 52.1723 36.5887 52.5897 36.7676 52.9723C36.9464 53.3549 37.2074 53.6934 37.532 53.9637C37.8225 54.2058 38.1579 54.3882 38.519 54.5004C38.8801 54.6127 39.2598 54.6526 39.6364 54.6179C40.0129 54.5832 40.379 54.4745 40.7135 54.2981C41.048 54.1217 41.3444 53.8811 41.5857 53.59L55.9607 36.34C56.3836 35.8255 56.6147 35.1803 56.6147 34.5143C56.6147 33.8484 56.3836 33.2032 55.9607 32.6887L42.0745 15.4387C41.8372 15.1434 41.5439 14.8978 41.2115 14.7162C40.879 14.5346 40.514 14.4205 40.1372 14.3804C39.7605 14.3403 39.3796 14.3751 39.0164 14.4827C38.6532 14.5903 38.3148 14.7687 38.0207 15.0075C37.7275 15.2468 37.4844 15.5416 37.3054 15.8751C37.1264 16.2086 37.015 16.5741 36.9776 16.9508C36.9402 17.3274 36.9776 17.7077 37.0875 18.0699C37.1974 18.432 37.3778 18.7689 37.6182 19.0612Z" fill="#CED8E2"/>
<path d="M35.8357 36.34C36.2586 35.8255 36.4897 35.1803 36.4897 34.5143C36.4897 33.8484 36.2586 33.2032 35.8357 32.6887L21.9495 15.4387C21.7122 15.1434 21.4189 14.8978 21.0865 14.7162C20.754 14.5346 20.3889 14.4205 20.0122 14.3804C19.6355 14.3403 19.2546 14.3751 18.8914 14.4827C18.5282 14.5903 18.1898 14.7687 17.8957 15.0075C17.6004 15.2447 17.3548 15.538 17.1732 15.8705C16.9916 16.2029 16.8775 16.568 16.8374 16.9447C16.7973 17.3214 16.8321 17.7023 16.9397 18.0655C17.0473 18.4288 17.2257 18.7671 17.4645 19.0612L29.9132 34.5L17.0332 49.9387C16.6109 50.4484 16.3773 51.0881 16.372 51.75C16.3713 52.1723 16.4637 52.5897 16.6426 52.9723C16.8214 53.3549 17.0824 53.6934 17.407 53.9637C17.6975 54.2058 18.0329 54.3882 18.394 54.5004C18.7551 54.6127 19.1348 54.6526 19.5114 54.6179C19.8879 54.5832 20.254 54.4745 20.5884 54.2981C20.9229 54.1217 21.2194 53.8811 21.4607 53.59L35.8357 36.34Z" fill="#CED8E2"/>
</g>
<g filter="url(#filter1_f_509_224)">
<path d="M36.6182 19.0612L49.0382 34.5L36.1582 49.9387C35.7359 50.4484 35.5023 51.0881 35.497 51.75C35.4963 52.1723 35.5887 52.5897 35.7676 52.9723C35.9464 53.3549 36.2074 53.6934 36.532 53.9637C36.8225 54.2058 37.1579 54.3882 37.519 54.5004C37.8801 54.6127 38.2598 54.6526 38.6364 54.6179C39.0129 54.5832 39.379 54.4745 39.7135 54.2981C40.048 54.1217 40.3444 53.8811 40.5857 53.59L54.9607 36.34C55.3836 35.8255 55.6147 35.1803 55.6147 34.5143C55.6147 33.8484 55.3836 33.2032 54.9607 32.6887L41.0745 15.4387C40.8372 15.1434 40.5439 14.8978 40.2115 14.7162C39.879 14.5346 39.514 14.4205 39.1372 14.3804C38.7605 14.3403 38.3796 14.3751 38.0164 14.4827C37.6532 14.5903 37.3148 14.7687 37.0207 15.0075C36.7275 15.2468 36.4844 15.5416 36.3054 15.8751C36.1264 16.2086 36.015 16.5741 35.9776 16.9508C35.9402 17.3274 35.9776 17.7077 36.0875 18.0699C36.1974 18.432 36.3778 18.7689 36.6182 19.0612Z" fill="#CED8E2"/>
<path d="M34.8357 36.34C35.2586 35.8255 35.4897 35.1803 35.4897 34.5143C35.4897 33.8484 35.2586 33.2032 34.8357 32.6887L20.9495 15.4387C20.7122 15.1434 20.4189 14.8978 20.0865 14.7162C19.754 14.5346 19.3889 14.4205 19.0122 14.3804C18.6355 14.3403 18.2546 14.3751 17.8914 14.4827C17.5282 14.5903 17.1898 14.7687 16.8957 15.0075C16.6004 15.2447 16.3548 15.538 16.1732 15.8705C15.9916 16.2029 15.8775 16.568 15.8374 16.9447C15.7973 17.3214 15.8321 17.7023 15.9397 18.0655C16.0473 18.4288 16.2257 18.7671 16.4645 19.0612L28.9132 34.5L16.0332 49.9387C15.6109 50.4484 15.3773 51.0881 15.372 51.75C15.3713 52.1723 15.4637 52.5897 15.6426 52.9723C15.8214 53.3549 16.0824 53.6934 16.407 53.9637C16.6975 54.2058 17.0329 54.3882 17.394 54.5004C17.7551 54.6127 18.1348 54.6526 18.5114 54.6179C18.8879 54.5832 19.254 54.4745 19.5884 54.2981C19.9229 54.1217 20.2194 53.8811 20.4607 53.59L34.8357 36.34Z" fill="#CED8E2"/>
</g>
<defs>
<filter id="filter0_b_509_224" x="-7.00293" y="-9" width="87" height="87" filterUnits="userSpaceOnUse" color-interpolation-filters="sRGB">
<feFlood flood-opacity="0" result="BackgroundImageFix"/>
<feGaussianBlur in="BackgroundImage" stdDeviation="4.5"/>
<feComposite in2="SourceAlpha" operator="in" result="effect1_backgroundBlur_509_224"/>
<feBlend mode="normal" in="SourceGraphic" in2="effect1_backgroundBlur_509_224" result="shape"/>
</filter>
<filter id="filter1_f_509_224" x="-6.00293" y="-7" width="83" height="83" filterUnits="userSpaceOnUse" color-interpolation-filters="sRGB">
<feFlood flood-opacity="0" result="BackgroundImageFix"/>
<feBlend mode="normal" in="SourceGraphic" in2="BackgroundImageFix" result="shape"/>
<feGaussianBlur stdDeviation="3.5" result="effect1_foregroundBlur_509_224"/>
</filter>
</defs>
</svg>
