<svg width="30" height="31" viewBox="0 0 30 31" fill="none" xmlns="http://www.w3.org/2000/svg">
<path d="M15.1447 7.80701C14.2266 7.80701 13.329 8.07927 12.5656 8.58937C11.8022 9.09947 11.2072 9.82449 10.8558 10.6728C10.5045 11.521 10.4125 12.4544 10.5916 13.3549C10.7708 14.2554 11.2129 15.0826 11.8621 15.7318C12.5114 16.3811 13.3385 16.8232 14.239 17.0023C15.1396 17.1814 16.073 17.0895 16.9212 16.7382C17.7695 16.3868 18.4945 15.7918 19.0046 15.0284C19.5147 14.265 19.787 13.3674 19.787 12.4493C19.787 11.2181 19.2979 10.0373 18.4273 9.16669C17.5567 8.2961 16.3759 7.80701 15.1447 7.80701ZM15.1447 15.2346C14.5938 15.2346 14.0553 15.0713 13.5972 14.7652C13.1392 14.4591 12.7822 14.0241 12.5714 13.5152C12.3606 13.0062 12.3054 12.4462 12.4129 11.9059C12.5203 11.3656 12.7856 10.8693 13.1752 10.4797C13.5647 10.0902 14.061 9.8249 14.6013 9.71743C15.1416 9.60996 15.7017 9.66512 16.2106 9.87593C16.7196 10.0867 17.1546 10.4438 17.4606 10.9018C17.7667 11.3599 17.9301 11.8984 17.9301 12.4493C17.9293 13.1878 17.6356 13.8958 17.1134 14.418C16.5912 14.9402 15.8832 15.2339 15.1447 15.2346Z" fill="white"/>
<path d="M15.1448 2.23633C12.574 2.23633 10.0609 2.99867 7.92333 4.42694C5.78577 5.85522 4.11974 7.88528 3.13593 10.2604C2.15212 12.6355 1.89471 15.2491 2.39625 17.7705C2.89779 20.2919 4.13576 22.608 5.95361 24.4259C7.77146 26.2437 10.0875 27.4817 12.609 27.9832C15.1304 28.4848 17.7439 28.2274 20.1191 27.2435C22.4942 26.2597 24.5243 24.5937 25.9525 22.4561C27.3808 20.3186 28.1431 17.8055 28.1431 15.2347C28.1392 11.7885 26.7685 8.4846 24.3317 6.04779C21.8949 3.61098 18.591 2.24026 15.1448 2.23633V2.23633ZM9.57411 24.8692V23.5907C9.57484 22.8522 9.86854 22.1442 10.3907 21.622C10.9129 21.0998 11.621 20.8061 12.3595 20.8054H17.9302C18.6687 20.8061 19.3767 21.0998 19.8989 21.622C20.4211 22.1442 20.7148 22.8522 20.7155 23.5907V24.8692C19.025 25.8563 17.1025 26.3765 15.1448 26.3765C13.1872 26.3765 11.2647 25.8563 9.57411 24.8692V24.8692ZM22.565 23.522C22.5465 22.3042 22.0503 21.1424 21.1834 20.2869C20.3164 19.4314 19.1481 18.9508 17.9302 18.9485H12.3595C11.1415 18.9508 9.97319 19.4314 9.10625 20.2869C8.23931 21.1424 7.74313 22.3042 7.72463 23.522C6.04094 22.0186 4.85361 20.0393 4.31984 17.8461C3.78608 15.6529 3.93107 13.3493 4.73561 11.2403C5.54015 9.13136 6.96629 7.31651 8.82519 6.03608C10.6841 4.75565 12.8881 4.07004 15.1453 4.07004C17.4025 4.07004 19.6065 4.75565 21.4654 6.03608C23.3243 7.31651 24.7504 9.13136 25.555 11.2403C26.3595 13.3493 26.5045 15.6529 25.9707 17.8461C25.437 20.0393 24.2496 22.0186 22.5659 23.522H22.565Z" fill="white"/>
</svg>
