<svg width="27" height="21" viewBox="0 0 27 21" fill="none" xmlns="http://www.w3.org/2000/svg">
<path d="M22.0364 9.34243C22.0364 9.34243 22.3924 11.0864 22.4726 11.4517H20.9075L21.6575 9.41245C21.6483 9.4268 21.8119 8.98554 21.9056 8.71386L22.0364 9.34243ZM27 2.25018V18.7498C26.9998 19.3465 26.7626 19.9187 26.3407 20.3407C25.9187 20.7626 25.3465 20.9998 24.7498 21H2.25021C1.65349 20.9998 1.08127 20.7626 0.659318 20.3407C0.237371 19.9187 0.000223618 19.3465 0 18.7498V2.25018C0.000223618 1.65346 0.237371 1.08125 0.659318 0.65931C1.08127 0.237367 1.65349 0.000223615 2.25021 0H24.7498C25.3465 0.000223615 25.9187 0.237367 26.3407 0.65931C26.7626 1.08125 26.9998 1.65346 27 2.25018ZM7.14887 14.025L10.1112 6.75054H8.11915L6.2773 11.7192L6.07565 10.7118L5.41924 7.36477C5.31124 6.90072 4.97881 6.7691 4.56623 6.75054H1.53389L1.50098 6.89566C2.19543 7.06602 2.86157 7.336 3.47867 7.69719L5.15684 14.025H7.14887ZM11.5742 14.0343L12.7554 6.75054H10.8714L9.69523 14.0343H11.5742ZM18.1316 11.6534C18.1409 10.824 17.6347 10.1912 16.5522 9.67063C15.8915 9.33736 15.4882 9.11294 15.4882 8.77039C15.4975 8.46075 15.8308 8.14182 16.5707 8.14182C17.0527 8.12823 17.5316 8.22279 17.9722 8.41856L18.1409 8.49787L18.3991 6.92266C17.8605 6.71646 17.2884 6.61149 16.7116 6.61302C14.8504 6.61302 13.5426 7.60691 13.5333 9.02182C13.519 10.0672 14.4707 10.6485 15.1837 10.9995C15.9101 11.3555 16.159 11.5901 16.159 11.9039C16.1497 12.3916 15.5684 12.616 15.0292 12.616C14.2792 12.616 13.8759 12.4988 13.2616 12.2271L13.0136 12.1098L12.7512 13.7458C13.1916 13.9474 14.0075 14.1254 14.8512 14.1347C16.8289 14.1389 18.1181 13.1594 18.1325 11.6508L18.1316 11.6534ZM24.7498 14.0343L23.2311 6.75054H21.7731C21.3234 6.75054 20.9809 6.88216 20.7885 7.35548L17.9899 14.0352H19.9676C19.9676 14.0352 20.2907 13.1349 20.3616 12.9434H22.7805C22.8371 13.2016 23.0058 14.0352 23.0058 14.0352L24.7498 14.0343Z" fill="#CED8E2"/>
</svg>
