<svg width="75" height="75" viewBox="0 0 75 75" fill="none" xmlns="http://www.w3.org/2000/svg">
<g clip-path="url(#clip0_480_2257)">
<path fill-rule="evenodd" clip-rule="evenodd" d="M26.895 42.5025L37.5075 49.7588L47.7375 42.7013L70.6687 65.325C70.065 65.52 69.42 65.625 68.7488 65.625H6.25125C5.42625 65.625 4.63875 65.4637 3.915 65.175L26.895 42.5025V42.5025ZM75 23.91V59.3738C75 60.3 74.7975 61.1775 74.4375 61.9687L51.96 39.7913L75 23.91ZM3.53851e-06 24.1087L22.6575 39.6037L0.397504 61.5713C0.133863 60.8686 -0.000795875 60.1242 3.53851e-06 59.3738V24.1125V24.1087ZM68.7488 9.375C72.1988 9.375 75 12.1725 75 15.6262V17.8237L37.4925 43.68L3.53851e-06 18.0375V15.6262C3.53851e-06 12.1762 2.7975 9.375 6.25125 9.375H68.7488V9.375Z" fill="#1CC9A1"/>
</g>
<defs>
<clipPath id="clip0_480_2257">
<rect width="75" height="75" fill="white"/>
</clipPath>
</defs>
</svg>
