<svg width="74" height="74" viewBox="0 0 74 74" fill="none" xmlns="http://www.w3.org/2000/svg">
<path d="M55.5 30.0625H50.875C50.8732 28.2231 50.1417 26.4596 48.841 25.159C47.5404 23.8583 45.7769 23.1268 43.9375 23.125V18.5C47.0029 18.5037 49.9418 19.723 52.1094 21.8906C54.277 24.0582 55.4963 26.9971 55.5 30.0625V30.0625Z" fill="#1CC9A1"/>
<path d="M64.75 30.0625H60.125C60.1201 25.7708 58.413 21.6563 55.3784 18.6216C52.3437 15.587 48.2292 13.8799 43.9375 13.875V9.25002C49.4554 9.25614 54.7456 11.4508 58.6474 15.3526C62.5492 19.2544 64.7439 24.5446 64.75 30.0625V30.0625ZM47.02 49.6771L52.2 44.4971C52.8934 43.8036 53.7751 43.3288 54.7357 43.1315C55.6963 42.9341 56.6938 43.0231 57.6044 43.3871L63.9129 45.9124C64.8427 46.2844 65.6397 46.9265 66.2011 47.7558C66.7625 48.5852 67.0625 49.5637 67.0625 50.5651V62.0375C67.0641 62.7193 66.9266 63.3943 66.6583 64.0212C66.3899 64.6481 65.9965 65.2136 65.5021 65.6831C65.0077 66.1527 64.4226 66.5164 63.7827 66.752C63.1428 66.9876 62.4616 67.0901 61.7807 67.0533C17.5611 64.3014 8.63023 26.8481 6.97217 12.506C6.89187 11.8049 6.96091 11.0946 7.17478 10.4221C7.38864 9.74952 7.74247 9.12986 8.21299 8.60385C8.68351 8.07785 9.26007 7.65742 9.90473 7.37021C10.5494 7.08301 11.2476 6.93555 11.9533 6.93752H23.2221C24.2236 6.93749 25.2021 7.23752 26.0314 7.79892C26.8607 8.36033 27.5028 9.15734 27.8749 10.0871L30.3978 16.3956C30.7619 17.3062 30.8508 18.3037 30.6535 19.2643C30.4562 20.2249 29.9813 21.1066 29.2878 21.8L24.1078 26.98C24.1078 26.98 26.9799 47.1727 47.02 49.6771Z" fill="#1CC9A1"/>
</svg>
